/* XPM */
static char *ddf5c6b43e664dc5af95de4779188750PJbLdivOgual9VIy[] = {
/* columns rows colors chars-per-pixel */
"32 32 117 2 ",
"   c None",
".  c #202125",
"X  c #212027",
"o  c #202127",
"O  c #222329",
"+  c #232329",
"@  c #23222A",
"#  c #23232A",
"$  c #23232B",
"%  c #232429",
"&  c #24242C",
"*  c #25242C",
"=  c #26262E",
"-  c #27262F",
";  c #272630",
":  c #272730",
">  c #272731",
",  c #272732",
"<  c #282932",
"1  c #282933",
"2  c #292933",
"3  c #282934",
"4  c #282835",
"5  c #282935",
"6  c #2B2A36",
"7  c #2A2B38",
"8  c #2A2B39",
"9  c #2B2C38",
"0  c #2B2C39",
"q  c #2C2D39",
"w  c #2C2D3B",
"e  c #2D2E3C",
"r  c #2D2F3C",
"t  c #2C2F3D",
"y  c #2D2F3D",
"u  c #2E2E3E",
"i  c #2E2F3E",
"p  c #2E2F3F",
"a  c #2F303E",
"s  c #2F3041",
"d  c #2F3142",
"f  c #313343",
"g  c #303441",
"h  c #313543",
"j  c #303244",
"k  c #313244",
"l  c #313344",
"z  c #343749",
"x  c #34364A",
"c  c #35364A",
"v  c #34374A",
"b  c #34364B",
"n  c #373A4F",
"m  c #373B4F",
"M  c #393C4F",
"N  c #393F4F",
"B  c #393D51",
"V  c #3A3E54",
"C  c #3A3E55",
"Z  c #3B3E55",
"A  c #3B4451",
"S  c #3B4055",
"D  c #3D4556",
"F  c #3C425A",
"G  c #3D425A",
"H  c #3E445B",
"J  c #404A5A",
"K  c #404A5B",
"L  c #414A5E",
"P  c #414660",
"I  c #404760",
"U  c #414760",
"Y  c #414761",
"T  c #414861",
"R  c #424A61",
"E  c #424B61",
"W  c #444C66",
"Q  c #454C66",
"!  c #454D66",
"~  c #444C67",
"^  c #454C67",
"/  c #444E66",
"(  c #454E66",
")  c #445563",
"_  c #465067",
"`  c #445564",
"'  c #49526C",
"]  c #48546C",
"[  c #49546C",
"{  c #4A556D",
"}  c #49586E",
"|  c #4D5872",
" . c #4E5C72",
".. c #505E78",
"X. c #515E78",
"o. c #505F78",
"O. c #515F78",
"+. c #54667B",
"@. c #54647E",
"#. c #55647E",
"$. c #54657E",
"%. c #586884",
"&. c #586984",
"*. c #596984",
"=. c #586985",
"-. c #586E86",
";. c #5B7187",
":. c #617590",
">. c #617690",
",. c #648098",
"<. c #67819C",
"1. c #698BA2",
"2. c #698BA3",
"3. c #6E8DA8",
"4. c #6F8DA8",
"5. c #6E8EA9",
"6. c #7599B5",
/* pixels */
"                                                                ",
"                                                                ",
"                                                                ",
"                                                                ",
"                                                                ",
"                                        > L                     ",
"                              9       > n ' 1.                  ",
"                  : @.`     > C 1.  % a P R :.A                 ",
"                > n @.6.A   x C 3.) = s R P ' ;.                ",
"              > x F ' %.<.d m ' >.3.8 z P P %.%.g               ",
"              w C P @.O.' m P P ;.5.-.z z ..O...N               ",
"              9 F Q O.[ _ H R P | =.:.u z N O.O.N               ",
"              = a _ x x / P P R ' X.=.3 a 2 S R j               ",
"              3 : x x x [ P P P =.X.O.: 2 2 x x J               ",
"              3 3 / R x H F L O.X.X.O.- 2 2 x b a               ",
"              X j Q 5.} C C P #.X.O.O.- = 3 x x g               ",
"                m Y %.>.[ x P O.X.' Q = = 3 x v a               ",
"              3 F Y %.O.@.k ' [ Q P Q = % 3 x x a               ",
"              u P P +. .O.k 2 n P P P : : : x k                 ",
"              $ P P l n _ x 3 b C m B  .>.- = %                 ",
"              = u a d d n 8 2 x x x Z O.%.J                     ",
"              8 $ > 2 d n > : x x x ' O.| V                     ",
"              4 % = 2 u m = u z x x D #.F R                     ",
"              > + = 2 u b = u z x x 3 s x x                     ",
"              = + + 3 8 = + u z a u % u x H                     ",
"                = + + X   . 4 =     9 a x n                     ",
"                X X                 = u x k                     ",
"                                    o u k %                     ",
"                                      % +                       ",
"                                                                ",
"                                                                ",
"                                                                "
};
