/* XPM */
static char *_a4ac87660824638b30de582bf78e227rIiOb4LtH4nCeIFr[] = {
/* columns rows colors chars-per-pixel */
"32 32 6 1 ",
"  c None",
". c #754C60",
"X c #90625D",
"o c #AA7959",
"O c #B68962",
"+ c #C49A6C",
/* pixels */
"                                ",
"                                ",
"     ..  ..   ..   ...   ..     ",
"    .++..++. .++. .+++. .++.    ",
"   .+OOX+OO+.+OO+.+OOO+.+OO+.   ",
"   .OOOXOOOOXOOOOXOOOOOXOOOO.   ",
"   .OooXOooOXOoooXOOooOXOooO.   ",
"   .oXXXoXXoXoXXXXooXXoXoXXo.   ",
"   .X++XX++XXX+++XXX++XXX++X.   ",
"   .+OOX+OO+X+OOO+X+OO+X+OO+.   ",
"   .OOOXOOOOXOOOOOXOOOOXOOOO.   ",
"   .OooXoooOXOOOOOXOOOOXoooO.   ",
"   .oXXXXXXoXOooOOXooOOXXXXo.   ",
"   .X++X+++XXoXXooXXXooX+++X.   ",
"   .+OXOOOO+XX++XXX++XX+OOO+.   ",
"   .OOXOOOOOX+OO+X+OO+XOOOOO.   ",
"   .OOXOOooOXOOOOXOOOOXOOOOO.   ",
"   .OoXOoXXoXOoooXOOooXOOooO.   ",
"   .oXXoX++XXoXXXXooXXXooXXo.   ",
"   .X++X+OO+XX+++XXX++XXX++X.   ",
"   .+OOXOOOOX+OOO+X+OO+X+OO+.   ",
"   .OOOXOOOOXOOOOOXOOOOXOOOO.   ",
"   .OooXOooOXOoooOXOooOXOOOO.   ",
"   .oXXXoXXoXoXXXoXoXXoXOooO.   ",
"   .X++XX++XXX+++XXX++XXoXXo.   ",
"   .+OOX+OO+X+OOO+X+OO+XX++X.   ",
"   .OOOXOOOOXOOOOOXOOOOX+OO+.   ",
"   .OOOXOOOOOXOOOOXOOOOXOOOO.   ",
"   .OOOXOOOOOXOOOOXOOOOXOOOO.   ",
"   .oooXoooooXooooXooooXoooo.   ",
"   .XXXXXXXXXXXXXXXXXXXXXXXX.   ",
"   .OOOOOOOOOOOOOOOOOOOOOOOO.   "
};
