/* XPM */
static char *d1092d2e83574a77895af5487963449cEOwVFbWhqteRBouD[] = {
/* columns rows colors chars-per-pixel */
"16 16 4 1 ",
"  c None",
". c #8F563B",
"X c #DF7126",
"o c #D9A066",
/* pixels */
"       X        ",
"      XoX       ",
"       X        ",
"     oXXX.      ",
"      XX.       ",
"     XXXX.      ",
"      XX.       ",
"      XX.       ",
"      XX.       ",
"      XX.       ",
"      XX.       ",
"     oXXX.      ",
"    oXXXXX.     ",
"   oXXXXXoX.    ",
"   oXXXXXXX.    ",
"                "
};
