/* XPM */
static char *_372d0c77a054594bf62ab92c4d2c5caNOPrecyd0CDDjmsm[] = {
/* columns rows colors chars-per-pixel */
"16 16 4 1 ",
"  c None",
". c #8F563B",
"X c #DF7126",
"o c #D9A066",
/* pixels */
"                ",
"     X X X      ",
"     XXXX.      ",
"     oXXX.      ",
"      XX.       ",
"     XXXX.      ",
"      XX.       ",
"      XX.       ",
"      XX.       ",
"      XX.       ",
"      XX.       ",
"     oXXX.      ",
"    oXXXXX.     ",
"   oXXXXXoX.    ",
"   oXXXXXXX.    ",
"                "
};
