/* XPM */
static char *_a57394591f84914ad7cbbca317f3149TzT6YXgbp3k71dvn[] = {
/* columns rows colors chars-per-pixel */
"16 16 4 1 ",
"  c None",
". c #8F563B",
"X c #DF7126",
"o c #D9A066",
/* pixels */
"                ",
"                ",
"     X X.       ",
"    oXXXX.      ",
"    X XXXX.     ",
"   oXXXXoXX.    ",
"   oXXXXXXX.    ",
"  oXX  XXX.     ",
"   X   XXX.     ",
"      XXXX.     ",
"     oXXX.      ",
"    oXXXX.      ",
"    oXXXXX.     ",
"   oXXXXXXX.    ",
"   oXXXXXXX.    ",
"                "
};
