/* XPM */
static char *_e284a37fea043e69a9bbccd020de79bgpiIfkM2WZnwYbIt[] = {
/* columns rows colors chars-per-pixel */
"32 32 123 2 ",
"   c #000000",
".  c #0F0302",
"X  c #050E06",
"o  c #06060A",
"O  c #06080C",
"+  c gray3",
"@  c #140403",
"#  c #090B12",
"$  c #0C0F18",
"%  c #0F121D",
"&  c gray8",
"*  c #133216",
"=  c #143818",
"-  c #131726",
";  c #151D27",
":  c #161C2D",
">  c #191E31",
",  c #1A2135",
"<  c #1D243A",
"1  c #202323",
"2  c #262A2A",
"3  c #2E2E2E",
"4  c #273036",
"5  c #2A3338",
"6  c gray22",
"7  c #62160E",
"8  c #7D1C12",
"9  c #18421D",
"0  c #1E5425",
"q  c #215D29",
"w  c #25692E",
"e  c #2A7634",
"r  c #212841",
"t  c #242D48",
"y  c #28314F",
"u  c #313B42",
"i  c #2B3556",
"p  c #2D3759",
"a  c #2E395D",
"s  c #303C57",
"d  c #323E64",
"f  c #38454D",
"g  c #34585C",
"h  c #37446D",
"j  c #364869",
"k  c #3B4871",
"l  c #484849",
"z  c #4B5353",
"x  c #54555A",
"c  c #585858",
"v  c #435074",
"b  c #46577D",
"n  c #4A567C",
"m  c #4D587F",
"M  c #575F76",
"N  c #5B6565",
"B  c #5D6069",
"V  c #676767",
"C  c #6A6A6A",
"Z  c #697472",
"A  c #64717A",
"S  c #717D7D",
"D  c #7B7B7B",
"F  c #AB322E",
"G  c #CB2E1C",
"H  c #D22F1E",
"J  c #2E8239",
"K  c #328E3F",
"L  c #369146",
"P  c #379B44",
"I  c #419F5F",
"U  c #43B856",
"Y  c #409160",
"T  c #46C657",
"R  c #4E6085",
"E  c #54678A",
"W  c #687F8E",
"Q  c #767D95",
"!  c #758281",
"~  c #798686",
"^  c #6B8494",
"/  c #6C84A1",
"(  c #708AA4",
")  c #738EA8",
"_  c gray53",
"`  c #818F8E",
"'  c #898889",
"]  c #82908F",
"[  c #869494",
"{  c #979797",
"}  c #8B9DAD",
"|  c #89A7BB",
" . c #8AABBE",
".. c #95A6B4",
"X. c #A5A5A5",
"o. c #A5A7AE",
"O. c #AAAFBD",
"+. c #ABBEBD",
"@. c gray71",
"#. c #BABABA",
"$. c #A8E4B0",
"%. c #8DADC0",
"&. c #95B4C4",
"*. c #9AB8C7",
"=. c #A1BECB",
"-. c #ACC0C8",
";. c #B5C8C7",
":. c #ABC2D0",
">. c #B6CBD5",
",. c #BDD5D8",
"<. c #C7C7C7",
"1. c #CACACC",
"2. c #C7CAD6",
"3. c #C5DBDC",
"4. c #C8D8DF",
"5. c #D2D6DE",
"6. c gray86",
"7. c #CAE0DF",
"8. c #C9D8E1",
"9. c #CBE1E1",
"0. c #DEE0E7",
"q. c #F1F1F1",
"w. c #FFFFFF",
/* pixels */
"  :     $             %     :     r     i     h     a     t e q ",
"  :     ' { w.+ w.w.w.B w.6.X._ #.r w.  i w.  w.+ q.O.w.  t e q ",
"  :     w.c c     w.  5.l   w._ w.#.w.  i w.V w.  w.Q c   t e q ",
"  :     x   w.o   w.  5.D 3 w._ _ 0.w.& M w.  w.+ l a w.  T 0 9 ",
"  :     1.<.@.    1.  % <.<.x C C r <.6 o.<.  5.o <.5.3   T     ",
"# : O O % 4 &.&.&.1   - O o , o o t o O p   O h   # a   # T o # ",
"  :   o  .&.9.9.9.9.1 $     :     r     i     h     a P = U     ",
"  :    .%. .7.3.9.3.&.$     :     r     i     h     a P = t     ",
"  :    .%. .| |  .9.| $     :     r     i     d     a P = t     ",
"  :    . .%.9.,.%.9.8.$     :     r   * L     h     T X   t     ",
"  :    .*.9.9.,.b 9.9.%     :     r   = P H   h     T     t     ",
"  :   4 %.=.9.*.-.,.5 $     :     r   = P H . F T X g     t     ",
"  :   4  . .%.) )  .o $     :     r   = P   @ G =   a     t     ",
"  :   4  . ./ E E X   $     :     r J = P     h     a     t     ",
"  : $ s  . . . .o     $     :     r T   i     h     a     t     ",
"  < - h m 8. .%.w.    %     : w   r T   i     h     a     t     ",
"i h h h h n 4.$.4.h < > O   : T 7 8 T   i     h     a     t     ",
"h , h > h h j Y >.h t i h r : T 7 8 T   i     h     a     t     ",
"h h > , : t h ; T h , h h h   T 7 8 J   i     h     a     t     ",
"h d h   h a h h I h h   h h : K   r     i     h     a     t     ",
"h h #   p h % h h s h # h h <     r     i     h     a     t     ",
"h h h O % h h h p h h p h h h     r     i     h     a     t     ",
"h h h W   d h h h p d i t h h ,   r     i     h     a     t     ",
"h h h R ^     o h h   o o h h >   r     i     h     a     t     ",
"k h h h h h h h h h h k :. .f <   r     i     h     a     t     ",
"h h h h h h h k h h h h 2. .k h , r     i     h     a     t     ",
"h h d h h k h h h h h h R i h h < t o o p   O h   # a   # t o O ",
"O < t > h h h h h h h h h t h h h r     i     h     a     t     ",
"  >     ; W ) ( - h h h r y h h t r     i     h     a     t     ",
"  h h d t < u u           - - - $ r     i S [ ..] ~ v Z 2 A [   ",
", h h h h h h h         : r       r     i +.` } ! z +.N ;.[ +.  ",
", h h h h h h h     > d h h y < < p < < d < < h < < d < < a < < "
};
