/* XPM */
static char *f7afa67f22c7488c8f0091a5b0eb003axRntrmUll4Rdmaaf[] = {
/* columns rows colors chars-per-pixel */
"32 32 4 1 ",
"  c #C0D470",
". c #A4C263",
"X c #D2E077",
"o c white",
/* pixels */
"                                ",
"                                ",
"                                ",
"                                ",
"                                ",
"                       .....    ",
"    ....             ........   ",
"   .......          .........   ",
"   ........         .........   ",
"   ........          .......    ",
"   ........                     ",
"    ......                 ...  ",
"                   ....   ..... ",
"          ....    ......  ..... ",
"         ......   ......   ...  ",
"         ......    ....         ",
"          ....                  ",
"                                ",
"                                ",
"                                ",
"                                ",
"                                ",
"    XXXXX              XXXXX    ",
"   XXXXXXX            XXXXXXXX  ",
"   XXXXXXX            XXXXXXXXX ",
"    XXXXX             XXXXXXXXX ",
"                       XXXXXXX  ",
"          XXXX                  ",
"        XXXXXXX     XXXX        ",
"        XXXXXXX    XXXXXX       ",
"   XXX   XXXXX     XXXXXX       ",
"  XXXXX             XXXX        "
};
