/* XPM */
static char *_d3162ed0dfe48b1b037c6b4d415b4d4ZWgfuB41OJca2ho9[] = {
/* columns rows colors chars-per-pixel */
"32 30 201 2 ",
"   c None",
".  c #272317",
"X  c #282416",
"o  c #282417",
"O  c #292417",
"+  c #282318",
"@  c #292318",
"#  c #282418",
"$  c #292418",
"%  c #292518",
"&  c #292419",
"*  c #2A2418",
"=  c #2B2418",
"-  c #2B2518",
";  c #2A2519",
":  c #2B2519",
">  c #292618",
",  c #29241A",
"<  c #2E2419",
"1  c #2F251A",
"2  c #2C271B",
"3  c #2D281B",
"4  c #2E281C",
"5  c #2E291C",
"6  c #2F291C",
"7  c #302419",
"8  c #30251A",
"9  c #31251A",
"0  c #30251B",
"q  c #32251A",
"w  c #32251B",
"e  c #34251B",
"r  c #36271B",
"t  c #39251C",
"y  c #38271D",
"u  c #36281D",
"i  c #302D1F",
"p  c #38281D",
"a  c #38291E",
"s  c #2D2220",
"d  c #332B21",
"f  c #332D22",
"g  c #392A20",
"h  c #382B22",
"j  c #3A2C21",
"k  c #393428",
"l  c #40271E",
"z  c #41271E",
"x  c #43271F",
"c  c #472720",
"v  c #432B21",
"b  c #442A22",
"n  c #4B2921",
"m  c #4B2A22",
"M  c #4C2821",
"N  c #4D2822",
"B  c #4D2922",
"V  c #4F2E26",
"C  c #432F28",
"Z  c #502822",
"A  c #522823",
"S  c #522A23",
"D  c #542823",
"F  c #512E27",
"G  c #5F2A27",
"H  c #582E27",
"J  c #443127",
"K  c #42352F",
"L  c #513229",
"P  c #54342B",
"I  c #583229",
"U  c #423932",
"Y  c #453C31",
"T  c #483F35",
"R  c #543930",
"E  c #573B33",
"W  c #583C34",
"Q  c #612A27",
"!  c #6B2C2A",
"~  c #6C2D2A",
"^  c #6F2C2B",
"/  c #742E2C",
"(  c #752F2D",
")  c #752F2E",
"_  c #792D2D",
"`  c #7B2E2D",
"'  c #782F2E",
"]  c #7B2E2E",
"[  c #73302C",
"{  c #693730",
"}  c #6E3832",
"|  c #713430",
" . c #783131",
".. c #763B35",
"X. c #793A36",
"o. c #7B3A36",
"O. c #7C3A35",
"+. c #4C463B",
"@. c #50483D",
"#. c #534B40",
"$. c #524A41",
"%. c #5E5440",
"&. c #7D4844",
"*. c #605743",
"=. c #61574C",
"-. c #62594F",
";. c #655B50",
":. c #685E52",
">. c #656258",
",. c #686058",
"<. c #6A655D",
"1. c #72665C",
"2. c #70695F",
"3. c #7A766E",
"4. c #843030",
"5. c #843433",
"6. c #8A3132",
"7. c #893636",
"8. c #863F3B",
"9. c #8A3C39",
"0. c #913034",
"q. c #933335",
"w. c #963035",
"e. c #943235",
"r. c #953637",
"t. c #9B3237",
"y. c #953639",
"u. c #A5353A",
"i. c #A5363A",
"p. c #A8363B",
"a. c #A93A3E",
"s. c #B2343D",
"d. c #B3363E",
"f. c #B4353D",
"g. c #B7363F",
"h. c #A83F41",
"j. c #BC3741",
"k. c #BB3840",
"l. c #C03741",
"z. c #C23841",
"x. c #C53842",
"c. c #C63942",
"v. c #C63943",
"b. c #C43B43",
"n. c #CF3B45",
"m. c #D03E47",
"M. c #834542",
"N. c #884E4A",
"B. c #944848",
"V. c #925856",
"C. c #965855",
"Z. c #AF4948",
"A. c #AA4C4C",
"S. c #B34748",
"D. c #BE464A",
"F. c #B24C4B",
"G. c #BA4A4B",
"H. c #A15452",
"J. c #AA5E5E",
"K. c #B16967",
"L. c #B36A6A",
"P. c #C7444B",
"I. c #CE484D",
"U. c #D5434B",
"Y. c #D8484F",
"T. c #D64D52",
"R. c #D94950",
"E. c #DC4D53",
"W. c #D84C55",
"Q. c #DC4D54",
"!. c #DE575B",
"~. c #D95A5C",
"^. c #E05358",
"/. c #E75B5E",
"(. c #E85C5E",
"). c #E85D5F",
"_. c #E75F63",
"`. c #E65E64",
"'. c #C66F70",
"]. c #C17273",
"[. c #C97679",
"{. c #EA6265",
"}. c #EC666A",
"|. c #E0696D",
" X c #E16C6F",
".X c #F17175",
"XX c #F37579",
"oX c #F3757A",
"OX c #E27F83",
"+X c #E87E82",
"@X c #E97F83",
"#X c #9C9187",
"$X c #A39D96",
"%X c #B1ADA7",
"&X c #E18386",
"*X c #EA8387",
"=X c #E28388",
"-X c #ED898D",
";X c #F78E93",
":X c #FC8A90",
">X c #FF9298",
/* pixels */
"                                                                ",
"                                                                ",
"                                                                ",
"                                                                ",
"                                                                ",
"                    # # O                                       ",
"              j v H.*X+X Xb =                                   ",
"            W '.G.9.S S N c u V                                 ",
"          ..V.~ ] ] b.l.g. .N.{                                 ",
"        # | # 7.A.M.Q Q Q R &.Z                                 ",
"        # L.[.C.P J O # = y.! z                                 ",
"        # &X>X;X-X-X|.+X~.OX7 D D                               ",
"        # =X# F Y.XX:XR # m.b.5.i 8                             ",
"          ].: J.!.}.{.| I b.) *.@.x                             ",
"          h X.O.h.XX.XQ./.D.: P / w.p                           ",
"          # P.I.F.`._.(.E.T.6.p.b./ 7 i O                       ",
"            N j.U.U.^.(.Y.m.m.x._ q :.#     O                   ",
"              e Q d.g.g.g.s.0.y   3.k   # # O                   ",
"                  # @ @ y z / : i %X,.+.<.#                     ",
"                    H y Z.u.u.X.2.$X#X4 O                       ",
"                    r.m # 0 #.;.1.#.=.f # : i =                 ",
"                    e.m >.;.#.U C q                             ",
"                    q.t.T U K = ) N                             ",
"                    q e = , d @ q                               ",
"                    K.W.q a B.5.                                ",
"                    8.a.: a S.)                                 ",
"                    # # # : <                                   ",
"                                                                ",
"                                                                ",
"                                                                "
};
