/* XPM */
static char *_9dc07b243c14a2192a41a5f658b9444aQvsTK40MiZTDenV[] = {
/* columns rows colors chars-per-pixel */
"32 32 7 1 ",
"  c None",
". c #A2745E",
"X c #78A158",
"o c #B68962",
"O c #C49A6C",
"+ c #A4C263",
"@ c #C0D470",
/* pixels */
" .X++@@@@@@@@@@@@@@@@@@@@@@++X. ",
"o.X+@@@@@@@@@@@@@@@@@@@@@@@@+X.o",
".X++@@@@@@@@@@@@@@@@@@@@@@@@++X.",
".X+@@@@@@@@@@@@@@@@@@@@@@@@@@+X.",
".X+@@@@@@@@@@@@@@@@@@@@@@@@@@+X.",
".X++@@@@@@@@@@@@@@@@@@@@@@@@++X.",
"o.X+@@@@@@@@@@@@@@@@@@@@@@@@+X.o",
"o.X+@@@@@@@@@@@@@@@@@@@@@@@@+X.o",
"o.X++@@@@@@@@@@@@@@@@@@@@@@++X.o",
"o.X++@@@@@@@@@@@@@@@@@@@@@@++X.o",
"o.X++@@@@@@@@@@@@@@@@@@@@@@++X.o",
".X++@@@@@@@@@@@@@@@@@@@@@@@@++X.",
".X+@@@@@@@@@@@@@@@@@@@@@@@@@@+X.",
".X+@@@@@@@@@@@@@@@@@@@@@@@@@@+X.",
".X+@@@@@@@@@@@@@@@@@@@@@@@@@@+X.",
".X++@@@@@@@@@@@@@@@@@@@@@@@@++X.",
"o.X+@@@@@@@@@@@@@@@@@@@@@@@@+X.o",
"o.X+@@@@@@@@@@@@@@@@@@@@@@@@+X.o",
"o.X+@@@@@@@@@@@@@@@@@@@@@@@@+X.o",
".X++@@@@@@@@@@@@@@@@@@@@@@@@++X.",
".X+@@@@@@@@@@@@@@@@@@@@@@@@@@+X.",
".X+@@@@@@@@@@@@@@@@@@@@@@@@@@+X.",
".X++@@@@@@@@@@@@@@@@@@@@@@@@++X.",
"o.X++@@@@@@@@@@@@@@@@@@@@@@@+X.o",
"o.X++@@@@@@@@@@@@@@@@@@@@@@++X.o",
"o.X+++@+++@@++@@@@@++@@++++++X.o",
"oo.X++++X++++++@@@++++++X+++X.oo",
"ooo.XXXX.X+++X+++++X+++X.XXX.ooo",
"oooo....o.XXX.X+++X.XXX.o...oooo",
"ooOOOooooo...o.XXX.o...oooooOOOo",
"oOOOOOooooooooo...oooooooooOOOOO",
"ooOOOoooOOOoooooooooooOOOoooOOOo"
};
