/* XPM */
static char *_f54511d62fc47a09990bdc6536d93e4cUVcEYZCdIXOZm8P[] = {
/* columns rows colors chars-per-pixel */
"32 32 115 2 ",
"   c None",
".  c #373B45",
"X  c #414754",
"o  c #444B58",
"O  c #444C58",
"+  c #474F5B",
"@  c #4B5262",
"#  c #4A5362",
"$  c #4B5362",
"%  c #4B5363",
"&  c #4C5563",
"*  c #4C5764",
"=  c #515B69",
"-  c #545F70",
";  c #555F70",
":  c #55636F",
">  c #56636E",
",  c #576271",
"<  c #576371",
"1  c #5A6777",
"2  c #5B6777",
"3  c #5E6D7B",
"4  c #606C7E",
"5  c #616C7E",
"6  c #60707B",
"7  c #677680",
"8  c #667783",
"9  c #657484",
"0  c #657485",
"q  c #647784",
"w  c #657784",
"e  c #657785",
"r  c #697982",
"t  c #6C7E88",
"y  c #6B7C8C",
"u  c #6B7C8D",
"i  c #6D818C",
"p  c #6D818D",
"a  c #6E8190",
"s  c #6F8190",
"d  c #6E8191",
"f  c #718494",
"g  c #708495",
"h  c #718495",
"j  c #728597",
"k  c #748B96",
"l  c #758B96",
"z  c #768C9D",
"x  c #778C9D",
"c  c #788C9E",
"v  c #788D9E",
"b  c #7A8F9F",
"n  c #7B929A",
"m  c #7C94A3",
"M  c #7C95A3",
"N  c #7E94A6",
"B  c #7E95A6",
"V  c #7F95A6",
"C  c #7F97A8",
"Z  c #82999F",
"A  c #8096A7",
"S  c #899BA1",
"D  c #8898A6",
"F  c #849FAC",
"G  c #879EAF",
"H  c #869FAF",
"J  c #909DA2",
"K  c #849FB0",
"L  c #859FB0",
"P  c #859EB1",
"I  c #859FB1",
"U  c #87A1B1",
"Y  c #89A3B2",
"T  c #8CA9B5",
"R  c #8CA8B9",
"E  c #8CA9B9",
"W  c #8DA9B9",
"Q  c #8FABB9",
"!  c #97B2BB",
"~  c #9EB3BD",
"^  c #95B3C1",
"/  c #94B3C2",
"(  c #94B2C3",
")  c #94B3C3",
"_  c #95B3C3",
"`  c #9ABAC2",
"'  c #9BBDCB",
"]  c #9CBDCB",
"[  c #9FBFCC",
"{  c #A3C4CF",
"}  c #A8C3C9",
"|  c #A9C3C9",
" . c #AFCACD",
".. c #B6CCCF",
"X. c #A4C7D3",
"o. c #A3C6D4",
"O. c #A2C7D4",
"+. c #A3C7D4",
"@. c #AACED8",
"#. c #ABD0DD",
"$. c #ABD1DD",
"%. c #B2D8E2",
"&. c #B3DBE6",
"*. c #B2DBE7",
"=. c #B9E2EA",
"-. c #B9E3EA",
";. c #C0E9EE",
":. c #C0E8EF",
">. c #C1E8EF",
",. c #C0E9EF",
"<. c #C7F0F4",
"1. c #CEF2F5",
"2. c #CEF8F9",
"3. c #CFF8F9",
"4. c #CEF9F9",
/* pixels */
"                                                                ",
"                                                                ",
"                                                                ",
"                                                                ",
"                                              p                 ",
"                                          e ' ,.                ",
"                          f |           ) ] &.2.J               ",
"                          L -...      < ) &.&.2.J               ",
"                          L +.-.      % L &.-.2.S               ",
"                          < W $.      e A L -.2.Z               ",
"                      .   % z ' l     h L ) ' ,.                ",
"      m +.=.} S       p ` 7 u K e   % x ) ) O.6                 ",
"      3 ) ) +.{ T     < ) +.j U 7   < U ) ) 7                   ",
"        L W B L ) F < o x E W u q   h ( ) s                     ",
"        = 4 u x B W ) < o h W x _ = L ( B                       ",
"            % 4 u f F _ : X x W U A t S .                       ",
"                % ; 0 s F f 0 L L C &.$.        r S J           ",
"                    o 9 5 u 0 h 0 U 4 c u e [ $.,.,.,.:.l       ",
"                p n ..-.=.*.Y 5 0 u x B F z x x N ' +.+.6       ",
"              B ) [ ) Y b ! Q A b [ e 4 e u y y z B W <         ",
"            * L K h D ~ 1.=.G 0 2 L @.1 % % % % % % &           ",
"                : =.,.-.o.F u o @ h @...                        ",
"                k [ _ _ N h ;     4 F =...                      ",
"                e _ _ _ L 3 +     ; u ) <. .                    ",
"                < ) ) L h %       + 4 c +.%.n                   ",
"                < L x < %           4 h ) ) l                   ",
"                                    < B L ) p                   ",
"                                        * < +                   ",
"                                                                ",
"                                                                ",
"                                                                ",
"                                                                "
};
